<?xml version="1.0" standalone="no"?><!DOCTYPE svg PUBLIC "-//W3C//DTD SVG 1.1//EN" "http://www.w3.org/Graphics/SVG/1.1/DTD/svg11.dtd"><svg t="1710679400620" class="icon" viewBox="0 0 1046 1024" version="1.1" xmlns="http://www.w3.org/2000/svg" p-id="1489" xmlns:xlink="http://www.w3.org/1999/xlink" width="204.296875" height="200"><path d="M435.952666 153.070996l-5.673373 143.35852c-0.101613 2.811283-1.490319 5.249987-3.64112 6.350791-15.411253 7.561675-23.176153 1.862899-23.286234-17.104797a4888.855768 4888.855768 0 0 0-2.624993-131.50371c-7.959658-19.475759-20.347934-35.090237-37.173296-46.826498a10.03425 10.03425 0 0 0-7.705626-1.52419c-41.093851 7.502401-65.819597-4.860472-74.177238-37.088619-23.794297-91.959452 130.572261-93.737674 102.205395 7.366917a6.350791 6.350791 0 0 0 2.032253 6.6895c24.217683 19.69592 40.899093 43.126104 50.044232 70.282086zM659.923892 153.325028a2536.92927 2536.92927 0 0 0-1.778222 129.302102c0.338709 29.382993-29.806379 35.310397-29.891056 1.693545a2284.337147 2284.337147 0 0 0-3.979829-131.927097c8.298367-27.723319 24.530988-50.16278 48.689397-67.318383a5.842728 5.842728 0 0 0 2.201608-6.435468c-28.874929-101.951363 122.189217-102.459426 104.068293-14.649158-7.451595 35.903138-32.516049 49.815604-75.193364 41.745866a10.203604 10.203604 0 0 0-7.620949 1.524189c-17.164071 11.736262-29.323719 27.096708-36.495878 46.064404z" fill="#349950" p-id="1490"></path><path d="M400.726946 154.1718c1.464916 43.972876 2.345559 87.810269 2.624993 131.50371 0.11008 18.967695 7.874981 24.666472 23.286234 17.104797 2.150801-1.100804 3.539507-3.539507 3.64112-6.350791l5.673373-143.35852 188.322119-0.677418c2.59959 43.913602 3.920555 87.894946 3.979829 131.927097 0.084677 33.616853 30.229765 27.689448 29.891056-1.693545a2536.92927 2536.92927 0 0 1 1.778222-129.302102c52.923257 3.133057 99.072338-8.891107 139.886754 6.266113 16.706814 6.266114 25.089858 17.892295 25.149132 34.887012l0.846772 202.039827c-46.293032 4.233861-93.796948 5.080633-142.511748 2.540317a13.506015 13.506015 0 0 0-7.87498 2.032253c-13.827789 9.195945-13.827789 18.231004 0 27.096708 1.981447 1.210884 4.724988 1.89677 7.87498 1.947576l144.374647 2.540316a674.657219 674.657219 0 0 0-0.338709 123.628729c-43.693441 2.929832-87.412286 3.64112-131.165002 2.116931-16.850765-0.59274-49.19746 10.415297-18.628986 30.483796 2.260882 1.490319 5.012891 2.252414 7.874981 2.201608l144.289969-2.116931c-3.04838 50.23899-4.318538 128.396056-3.810475 234.4712 0.254032 66.048225-90.350585 50.975682-131.165001 50.891004v-156.568164c0-8.848769-4.835069-16.715282-12.362873-20.0685-17.443506-7.874981-20.915271 13.548354-20.491885 26.588645a1598.367053 1598.367053 0 0 1-2.116931 149.878665h-234.301845a2133.967354 2133.967354 0 0 1-2.709671-156.822196c0.338709-19.365678-5.478616-26.283807-17.443506-20.745917-9.991911 4.572569-15.047141 12.752388-15.157221 24.556391l-1.354835 153.011722c-36.580556 0.050806-73.161111-0.084677-109.741667-0.423386-40.052321-0.338709-52.499871-23.878974-54.024061-61.729688-2.201608-55.836154-1.718947-112.451337 1.439513-169.862487 41.322479-0.96532 82.704233-1.354835 124.136792-1.185481 16.681411 0 49.028106-1.608867 26.842677-28.959606a8.425383 8.425383 0 0 0-7.028209-3.04838c-48.435365 2.311688-96.532022 0.982256-144.289969-3.979829l-0.254032-185.273739 145.729482-0.93145c2.904428 0 5.529422-1.083868 7.197563-2.963702 6.833451-7.959658 7.087483-15.809235 0.762095-23.540265-1.617335-1.989914-4.216925-3.192331-7.112886-3.302411-36.665233-0.931449-94.838477 2.286285-146.322222-4.149184a3240.90174 3240.90174 0 0 1-1.016127-168.931038c0.846772-40.475707 16.681411-64.354681 58.850663-63.253877 37.655956 1.016127 76.573603 1.52419 116.769875 1.52419z m225.190577 280.958989a39.713612 39.713612 0 0 0-39.781354-39.654338l-121.596476 0.211693a39.713612 39.713612 0 0 0-39.645871 39.781354l0.270967 157.499614a39.713612 39.713612 0 0 0 39.781354 39.645871l121.596477-0.211693a39.713612 39.713612 0 0 0 39.64587-39.781354l-0.270967-157.499615z" fill="#4FB86A" p-id="1491"></path><path d="M226.122535 384.832525c51.483745 6.435468 109.656989 3.217734 146.322222 4.149184 2.895961 0.11008 5.495551 1.312497 7.112886 3.302411 6.325388 7.731029 6.071356 15.580607-0.762095 23.540265-1.668141 1.879834-4.293135 2.963702-7.197563 2.963702l-145.729482 0.93145-36.157169-1.693545c-3.006041-0.169354-5.673373-1.185481-7.536272-2.879025l-53.007935-50.636973a14.903189 14.903189 0 0 0-10.889489-4.132248 12.566098 12.566098 0 0 0-9.687073 5.148375c-20.237854 28.197512-50.552296 44.9636-82.052219 23.624942-76.040136-51.399068 32.177341-156.314133 81.544155-66.725643 1.371771 2.540316 3.615717 4.242328 6.012082 4.572569l19.052373 2.624994c3.107654 0.431854 5.690309 1.515722 7.28224 3.04838l54.955511 51.822453c2.438704 2.277817 5.122971 3.471766 7.197563 3.217734l23.540265-2.879025zM827.669449 432.67515l-144.374647-2.540316c-3.149992-0.050806-5.893534-0.736692-7.87498-1.947576-13.827789-8.865704-13.827789-17.900763 0-27.096708 2.201608-1.439513 4.953617-2.142333 7.87498-2.032253 48.7148 2.540316 96.218716 1.693544 142.511748-2.540317 40.39103 19.052373 54.955511-57.072441 106.015869-58.765985a7.959658 7.959658 0 0 0 6.520146-3.64112c64.69339-100.511851 161.733475 43.185378 69.689345 72.060308-31.389842 9.873363-55.861557-1.922173-73.415143-35.395075a5.563293 5.563293 0 0 0-4.708053-2.963702 5.961276 5.961276 0 0 0-5.114503 2.540316c-24.217683 34.548302-56.589781 55.319623-97.124762 62.322428zM226.122535 604.993276c47.757948 4.962085 95.854604 6.291517 144.289969 3.979829 2.709671-0.169354 5.317729 0.96532 7.028209 3.04838 22.18543 27.350739-10.161265 28.959606-26.842677 28.959606-41.43256-0.169354-82.814313 0.220161-124.136792 1.185481l-34.209594-2.370962a14.53061 14.53061 0 0 1-7.705626-2.794348c-18.518906-13.548354-36.013218-30.145087-52.499872-49.7902-8.637076-10.279814-16.876168-9.991911-24.725746 0.846772-21.762043 30.145087-58.257922 43.778119-87.556237 16.850765-64.69339-59.443403 46.657144-144.713355 87.640915-61.983719a7.57861 7.57861 0 0 0 6.012082 4.149183c48.266011 4.911278 68.419187 74.346592 112.705369 57.919213zM827.33074 556.303879c47.419239-0.762095 66.640966 32.431372 95.515895 60.798239 1.862899 1.862899 4.504828 2.760477 7.138289 2.4133 2.624994-0.347177 4.962085-1.89677 6.325388-4.191522 21.956801-36.699104 48.799477-45.810372 80.528028-27.350739 81.459478 47.588593-27.858803 159.362513-78.919161 66.302257a7.697159 7.697159 0 0 0-6.09676-3.895152l-18.120923-1.693544c-2.481042-0.211693-4.928214-1.591932-6.774177-3.810475-20.889868-25.064455-46.631741-43.693441-77.225617-55.88696l-144.289969 2.116931a13.802386 13.802386 0 0 1-7.874981-2.201608c-30.568474-20.068499 1.778221-31.076537 18.628986-30.483796 43.752715 1.52419 87.47156 0.812901 131.165002-2.116931zM425.452692 874.182133c-9.373767 25.572518-25.631792 46.623273-48.774074 63.1692a5.842728 5.842728 0 0 0-2.201608 6.435468c7.900384 27.096708 3.497169 48.545446-13.209645 64.354681-47.927302 45.132954-120.241641-14.987867-82.560282-68.92725 16.147944-23.15075 37.622085-30.348313 64.439359-21.592689a8.467721 8.467721 0 0 0 7.451594-0.93145 122.781957 122.781957 0 0 0 38.189423-42.50796l1.354835-153.011722c0.11008-11.804003 5.16531-19.983822 15.157221-24.556391 11.96489-5.53789 17.782215 1.380239 17.443506 20.745917-1.016127 52.440597-0.11008 104.71184 2.709671 156.822196zM694.726226 874.351487c-9.145139 24.835826-25.428567 45.835775-48.858751 62.999846a5.885066 5.885066 0 0 0-2.116931 6.520146c36.495878 113.213432-146.152868 94.330414-100.173142 0.254031 13.438274-27.494691 36.241847-36.385798 68.419188-26.673322 2.641929 0.804434 5.419342 0.499596 7.620949-0.846772 17.104797-10.33062 30.483796-24.471714 40.136998-42.423283 3.04838-49.849475 3.7512-99.80903 2.116931-149.878665-0.423386-13.040291 3.04838-34.463625 20.491885-26.588645 7.527804 3.353218 12.362873 11.219731 12.362873 20.0685v156.568164z" fill="#349950" p-id="1492"></path><path d="M424.822701 395.762138m39.713552-0.069314l121.596291-0.212225q39.713552-0.069313 39.782866 39.644238l0.274888 157.499375q0.069313 39.713552-39.644238 39.782865l-121.596292 0.212226q-39.713552 0.069313-39.782865-39.644239l-0.274888-157.499374q-0.069313-39.713552 39.644238-39.782866Z" fill="#E2F0FA" p-id="1493"></path></svg>